<?xml version="1.0" encoding="utf-8"?>
<COLLADA xmlns="http://www.collada.org/2005/11/COLLADASchema" version="1.4.1">
  <asset>
    <contributor>
      <author>BigWorld</author>
      <authoring_tool>BigWorld AssetProcessor</authoring_tool>
    </contributor>
    <created>2011-06-08T17:10:46</created>
    <modified>2011-06-08T17:10:46</modified>
    <unit name="meter" meter="1"/>
    <up_axis>Z_UP</up_axis>
  </asset>
  <library_effects>
    <effect id="Material">
      <profile_COMMON>
        <technique sid="common">
          <blinn>
            <emission>
              <color>0 0 0 1</color>
            </emission>
            <ambient>
              <color>0.5882353 0.5882353 0.5882353 1</color>
            </ambient>
            <diffuse>
              <color>0.5882353 0.5882353 0.5882353 1</color>
            </diffuse>
            <specular>
              <color>0.9 0.9 0.9 1</color>
            </specular>
            <shininess>
              <float>9.999999</float>
            </shininess>
            <reflective>
              <color>0 0 0 1</color>
            </reflective>
            <transparent opaque="A_ONE">
              <color>1 1 1 1</color>
            </transparent>
            <transparency>
              <float>1</float>
            </transparency>
          </blinn>
        </technique>
      </profile_COMMON>
      <extra>
        <technique profile="OpenCOLLADA3dsMax">
          <extended_shader>
            <apply_reflection_dimming>0</apply_reflection_dimming>
            <dim_level>0</dim_level>
            <falloff_type>0</falloff_type>
            <index_of_refraction>1.5</index_of_refraction>
            <opacity_type>0</opacity_type>
            <reflection_level>3</reflection_level>
            <wire_size>1</wire_size>
            <wire_units>0</wire_units>
          </extended_shader>
          <shader>
            <ambient_diffuse_lock>1</ambient_diffuse_lock>
            <ambient_diffuse_texture_lock>1</ambient_diffuse_texture_lock>
            <diffuse_specular_lock>0</diffuse_specular_lock>
            <soften>0.1</soften>
            <use_self_illum_color>0</use_self_illum_color>
          </shader>
        </technique>
      </extra>
    </effect>
  </library_effects>
  <library_materials>
    <material id="Material-material" name="Material">
      <instance_effect url="#Material"/>
    </material>
  </library_materials>
  <library_geometries>
    <geometry id="geom-Object" name="Object">
      <mesh>
        <source id="geom-Object-positions">
          <float_array id="geom-Object-positions-array" count="177">9.3969259 3.4202015 4.5762668 10.0000000 0.0000001 4.5762668 10.0000000 0.0000000 0.0000000 9.3969259 3.4202015 0.0000000 7.6604438 6.4278755 4.5762668 7.6604438 6.4278765 0.0000000 4.9999995 8.6602535 4.5762668 4.9999995 8.6602545 0.0000000 1.7364811 9.8480768 4.5762663 1.7364811 9.8480778 0.0000000 -1.7364830 9.8480768 4.5762663 1.7364811 9.8480768 4.5762663 1.7364811 9.8480778 0.0000000 -1.7364830 9.8480778 0.0000000 -5.0000005 8.6602535 4.5762668 -5.0000005 8.6602545 0.0000000 -7.6604447 6.4278755 4.5762668 -7.6604447 6.4278765 0.0000000 -9.3969259 3.4202023 4.5762668 -9.3969259 3.4202023 0.0000000 -10.0000000 0.0000016 4.5762668 -10.0000000 0.0000015 0.0000000 -9.3969269 -3.4201992 4.5762668 -9.3969269 -3.4201992 0.0000000 -7.6604462 -6.4278750 4.5762663 -7.6604462 -6.4278741 0.0000000 -5.0000033 -8.6602535 4.5762663 -5.0000033 -8.6602526 0.0000000 -1.7364861 -9.8480778 4.5762668 -1.7364861 -9.8480768 0.0000000 1.7364769 -9.8480787 4.5762668 1.7364769 -9.8480787 0.0000000 4.9999952 -8.6602583 4.5762663 4.9999952 -8.6602573 0.0000000 7.6604400 -6.4278817 4.5762663 7.6604400 -6.4278808 0.0000000 9.3969240 -3.4202080 4.5762668 9.3969240 -3.4202080 0.0000000 10.0000000 0.0000000 0.0000000 -0.0000018 -0.0000000 -5.1581297 9.3969259 3.4202015 0.0000000 7.6604438 6.4278765 0.0000000 4.9999995 8.6602545 0.0000000 1.7364811 9.8480778 0.0000000 1.7364811 9.8480778 0.0000000 -0.0000018 -0.0000000 -5.1581297 -1.7364830 9.8480778 0.0000000 -5.0000005 8.6602545 0.0000000 -7.6604447 6.4278765 0.0000000 -9.3969259 3.4202023 0.0000000 -10.0000000 0.0000015 0.0000000 -9.3969269 -3.4201992 0.0000000 -7.6604462 -6.4278741 0.0000000 -5.0000033 -8.6602526 0.0000000 -1.7364861 -9.8480768 0.0000000 1.7364769 -9.8480787 0.0000000 4.9999952 -8.6602573 0.0000000 7.6604400 -6.4278808 0.0000000 9.3969240 -3.4202080 0.0000000 </float_array>
          <technique_common>
            <accessor source="#geom-Object-positions-array" count="59" stride="3">
              <param name="X" type="float"/>
              <param name="Y" type="float"/>
              <param name="Z" type="float"/>
            </accessor>
          </technique_common>
        </source>
        <source id="geom-Object-normals">
          <float_array id="geom-Object-normals-array" count="177">-0.9393939 -0.3405088 0.0000000 -1.0000000 0.0000000 0.0000000 -0.8680352 0.0000000 0.4956012 -0.8152493 -0.2954990 0.4956012 -0.7653959 -0.6418787 0.0000000 -0.6647117 -0.5577300 0.4956012 -0.4995112 -0.8649706 0.0000000 -0.4340176 -0.7514677 0.4956012 -0.1730205 -0.9843444 0.0000000 -0.1505376 -0.8532289 0.4956012 0.1730205 -0.9843444 0.0000000 -0.1730205 -0.9843444 0.0000000 -0.1505376 -0.8532289 0.4956012 0.1505376 -0.8532289 0.4956012 0.4995112 -0.8649706 0.0000000 0.4340176 -0.7514677 0.4956012 0.7653959 -0.6418787 0.0000000 0.6647117 -0.5577300 0.4956012 0.9393939 -0.3405088 0.0000000 0.8152493 -0.2954990 0.4956012 1.0000000 0.0000000 0.0000000 0.8680352 0.0000000 0.4956012 0.9393939 0.3405088 0.0000000 0.8152493 0.2954990 0.4956012 0.7653959 0.6418787 0.0000000 0.6647117 0.5577300 0.4956012 0.4995112 0.8649706 0.0000000 0.4340176 0.7514677 0.4956012 0.1730205 0.9843444 0.0000000 0.1505376 0.8532289 0.4956012 -0.1730205 0.9843444 0.0000000 -0.1505376 0.8532289 0.4956012 -0.4995112 0.8649706 0.0000000 -0.4340176 0.7514677 0.4956012 -0.7653959 0.6418787 0.0000000 -0.6647117 0.5577300 0.4956012 -0.9393939 0.3405088 0.0000000 -0.8152493 0.2954990 0.4956012 -0.8680352 0.0000000 0.4956012 0.0000000 0.0000000 1.0000000 -0.8152493 -0.2954990 0.4956012 -0.6647117 -0.5577300 0.4956012 -0.4340176 -0.7514677 0.4956012 -0.1505376 -0.8532289 0.4956012 -0.1505376 -0.8532289 0.4956012 0.0000000 0.0000000 1.0000000 0.1505376 -0.8532289 0.4956012 0.4340176 -0.7514677 0.4956012 0.6647117 -0.5577300 0.4956012 0.8152493 -0.2954990 0.4956012 0.8680352 0.0000000 0.4956012 0.8152493 0.2954990 0.4956012 0.6647117 0.5577300 0.4956012 0.4340176 0.7514677 0.4956012 0.1505376 0.8532289 0.4956012 -0.1505376 0.8532289 0.4956012 -0.4340176 0.7514677 0.4956012 -0.6647117 0.5577300 0.4956012 -0.8152493 0.2954990 0.4956012 </float_array>
          <technique_common>
            <accessor source="#geom-Object-normals-array" count="59" stride="3">
              <param name="X" type="float"/>
              <param name="Y" type="float"/>
              <param name="Z" type="float"/>
            </accessor>
          </technique_common>
        </source>
        <source id="geom-Object-map1">
          <float_array id="geom-Object-map1-array" count="177">2.4991446 0.9887670 0.0000000 2.3348136 0.9887670 0.0000000 2.3348136 0.0024638 0.0000000 2.4991446 0.0024638 0.0000000 2.6645525 0.9887670 0.0000000 2.6645525 0.0024638 0.0000000 2.8316360 0.9887670 0.0000000 2.8316360 0.0024638 0.0000000 3.0002213 0.9887670 0.0000000 3.0002213 0.0024638 0.0000000 0.1694081 0.9887670 0.0000000 0.0002235 0.9887670 0.0000000 0.0002235 0.0024638 0.0000000 0.1694081 0.0024638 0.0000000 0.3379926 0.9887670 0.0000000 0.3379926 0.0024638 0.0000000 0.5050763 0.9887670 0.0000000 0.5050763 0.0024638 0.0000000 0.6704839 0.9887670 0.0000000 0.6704839 0.0024638 0.0000000 0.8348150 0.9887670 0.0000000 0.8348150 0.0024638 0.0000000 0.9991461 0.9887670 0.0000000 0.9991461 0.0024638 0.0000000 1.1645538 0.9887670 0.0000000 1.1645538 0.0024638 0.0000000 1.3316376 0.9887670 0.0000000 1.3316376 0.0024638 0.0000000 1.5002221 0.9887670 0.0000000 1.5002221 0.0024638 0.0000000 1.6694065 0.9887670 0.0000000 1.6694065 0.0024638 0.0000000 1.8379911 0.9887670 0.0000000 1.8379911 0.0024638 0.0000000 2.0050743 0.9887670 0.0000000 2.0050743 0.0024638 0.0000000 2.1704822 0.9887670 0.0000000 2.1704822 0.0024638 0.0000000 2.3381712 -0.0035948 0.0000000 1.5419569 0.0358350 0.0000000 2.5026171 -0.0035948 0.0000000 2.6681406 -0.0035948 0.0000000 2.8353407 -0.0035948 0.0000000 3.0040436 -0.0035948 0.0000000 0.0019491 -0.0035948 0.0000000 1.5419569 0.0358350 0.0000000 0.1712520 -0.0035948 0.0000000 0.3399543 -0.0035948 0.0000000 0.5071548 -0.0035948 0.0000000 0.6726782 -0.0035948 0.0000000 0.8371240 -0.0035948 0.0000000 1.0015700 -0.0035948 0.0000000 1.1670933 -0.0035948 0.0000000 1.3342937 -0.0035948 0.0000000 1.5029961 -0.0035948 0.0000000 1.6722989 -0.0035948 0.0000000 1.8410015 -0.0035948 0.0000000 2.0082018 -0.0035948 0.0000000 2.1737251 -0.0035948 0.0000000 </float_array>
          <technique_common>
            <accessor source="#geom-Object-map1-array" count="59" stride="3">
              <param name="S" type="float"/>
              <param name="T" type="float"/>
              <param name="P" type="float"/>
            </accessor>
          </technique_common>
        </source>
        <vertices id="geom-Object-vertices">
          <input semantic="POSITION" source="#geom-Object-positions"/>
        </vertices>
        <triangles material="Material" count="162">
          <input semantic="VERTEX" source="#geom-Object-vertices" offset="0"/>
          <input semantic="NORMAL" source="#geom-Object-normals" offset="1"/>
          <input semantic="TEXCOORD" source="#geom-Object-map1" offset="2" set="0"/>
          <p>0 0 0 2 2 2 1 1 1 3 3 3 2 2 2 0 0 0 4 4 4 3 3 3 0 0 0 5 5 5 3 3 3 4 4 4 6 6 6 5 5 5 4 4 4 7 7 7 5 5 5 6 6 6 8 8 8 7 7 7 6 6 6 9 9 9 7 7 7 8 8 8 10 10 10 12 12 12 11 11 11 13 13 13 12 12 12 10 10 10 14 14 14 13 13 13 10 10 10 15 15 15 13 13 13 14 14 14 16 16 16 15 15 15 14 14 14 17 17 17 15 15 15 16 16 16 18 18 18 17 17 17 16 16 16 19 19 19 17 17 17 18 18 18 20 20 20 19 19 19 18 18 18 21 21 21 19 19 19 20 20 20 22 22 22 21 21 21 20 20 20 23 23 23 21 21 21 22 22 22 24 24 24 23 23 23 22 22 22 25 25 25 23 23 23 24 24 24 26 26 26 25 25 25 24 24 24 27 27 27 25 25 25 26 26 26 28 28 28 27 27 27 26 26 26 29 29 29 27 27 27 28 28 28 30 30 30 29 29 29 28 28 28 31 31 31 29 29 29 30 30 30 32 32 32 31 31 31 30 30 30 33 33 33 31 31 31 32 32 32 34 34 34 33 33 33 32 32 32 35 35 35 33 33 33 34 34 34 36 36 36 35 35 35 34 34 34 37 37 37 35 35 35 36 36 36 1 1 1 37 37 37 36 36 36 2 2 2 37 37 37 1 1 1 38 38 38 40 40 40 39 39 39 40 40 40 41 41 41 39 39 39 41 41 41 42 42 42 39 39 39 42 42 42 43 43 43 39 39 39 44 44 44 46 46 46 45 45 45 46 46 46 47 47 47 45 45 45 47 47 47 48 48 48 45 45 45 48 48 48 49 49 49 45 45 45 49 49 49 50 50 50 45 45 45 50 50 50 51 51 51 45 45 45 51 51 51 52 52 52 45 45 45 52 52 52 53 53 53 45 45 45 53 53 53 54 54 54 45 45 45 54 54 54 55 55 55 45 45 45 55 55 55 56 56 56 45 45 45 56 56 56 57 57 57 45 45 45 57 57 57 58 58 58 45 45 45 58 58 58 38 38 38 45 45 45 </p>
        </triangles>
      </mesh>
      <extra>
        <technique profile="OpenCOLLADA3dsMax">
          <max_box>
            <generateuvs>1</generateuvs>
            <height>10</height>
            <heightsegments>3</heightsegments>
            <length>10</length>
            <lengthsegments>3</lengthsegments>
            <width>10</width>
            <widthsegments>3</widthsegments>
          </max_box>
        </technique>
      </extra>
    </geometry>
  </library_geometries>
  <library_lights>
    <light id="EnvironmentAmbientLight" name="EnvironmentAmbientLight">
      <technique_common>
        <ambient>
          <color>0 0 0</color>
        </ambient>
      </technique_common>
    </light>
  </library_lights>
  <library_visual_scenes>
    <visual_scene id="MaxScene">
      <node name="EnvironmentAmbientLight">
        <instance_light url="#EnvironmentAmbientLight"/>
      </node>
      <node id="node-Object" name="Object">
        <instance_geometry url="#geom-Object">
          <bind_material>
            <technique_common>
              <instance_material symbol="Material" target="#Material-material"/>
            </technique_common>
          </bind_material>
        </instance_geometry>
      </node>
    </visual_scene>
  </library_visual_scenes>
  <scene>
    <instance_visual_scene url="#MaxScene"/>
  </scene>
</COLLADA>
